<svg xmlns="http://www.w3.org/2000/svg" width="71" height="68" fill="none" viewBox="0 0 71 68">
    <path fill="#383838" d="M63.304 16.416H7.034A7.041 7.041 0 0 0 0 23.449v37.517A7.041 7.041 0 0 0 7.034 68h56.27a7.041 7.041 0 0 0 7.034-7.034V23.45a7.041 7.041 0 0 0-7.034-7.033zm-56.27 2.337h56.27c2.586 0 4.686 2.1 4.686 4.686v9.382H42.203v-3.517c0-.652-.528-1.169-1.17-1.169h-11.73c-.65 0-1.168.528-1.168 1.169v3.517H2.348v-9.382c0-2.576 2.1-4.686 4.686-4.686zm23.45 11.73h9.38v7.034h-9.38v-7.034zm32.82 35.169H7.034a4.688 4.688 0 0 1-4.686-4.686V35.17h25.787v3.517c0 .651.528 1.169 1.169 1.169h11.72c.651 0 1.168-.528 1.168-1.17V35.17H67.98v25.787a4.682 4.682 0 0 1-4.675 4.696zM22.27 11.72c.652 0 1.169-.528 1.169-1.17 0-4.52 3.682-8.202 8.203-8.202h7.033c4.52 0 8.203 3.682 8.203 8.203a1.168 1.168 0 1 0 2.338 0C49.236 4.737 44.499 0 38.686 0h-7.034c-5.813 0-10.55 4.737-10.55 10.55 0 .652.527 1.17 1.168 1.17z"/>
</svg>
