<svg xmlns="http://www.w3.org/2000/svg" width="75" height="50" fill="none" viewBox="0 0 75 50">
    <path fill="#383838" d="M38.28 9.991H21.391c-.694 0-1.244.562-1.244 1.245 0 .694.561 1.245 1.244 1.245H38.28c.694 0 1.245-.562 1.245-1.245s-.55-1.245-1.245-1.245zM38.28 17.493H21.391c-.694 0-1.244.562-1.244 1.245 0 .694.561 1.244 1.244 1.244H38.28a1.243 1.243 0 1 0 0-2.49zM38.28 24.994H21.391c-.694 0-1.244.562-1.244 1.245 0 .694.561 1.245 1.244 1.245H38.28c.694 0 1.245-.562 1.245-1.245 0-.694-.55-1.245-1.245-1.245zM38.28 32.485H21.391c-.694 0-1.244.562-1.244 1.245 0 .694.561 1.245 1.244 1.245H38.28c.694 0 1.245-.562 1.245-1.245s-.55-1.245-1.245-1.245zM38.28 39.987H21.391a1.243 1.243 0 1 0 0 2.49H38.28c.694 0 1.245-.563 1.245-1.245 0-.683-.55-1.245-1.245-1.245zM63.274 39.987H46.376a1.243 1.243 0 1 0 0 2.49h16.887c.694 0 1.245-.563 1.245-1.245a1.234 1.234 0 0 0-1.234-1.245zM63.274 32.485H46.376c-.694 0-1.245.562-1.245 1.245 0 .694.562 1.245 1.245 1.245h16.887c.694 0 1.245-.562 1.245-1.245a1.234 1.234 0 0 0-1.234-1.245z"/>
    <path fill="#383838" d="M68.187 0H11.115c-.694 0-1.256.562-1.256 1.245v3.602H1.245A1.25 1.25 0 0 0 0 6.092v37.86C0 47.235 2.82 50 6.169 50c.044 0 .077-.011.12-.011h62.096c3.657 0 6.532-2.908 6.532-6.62V7.006C74.907 3.139 71.888 0 68.187 0zM2.5 43.952V7.347h7.358V43.93c0 1.873-1.663 3.503-3.58 3.57h-.044c-.022 0-.033.01-.055.01-1.961 0-3.68-1.663-3.68-3.558zm69.905-.583c0 2.313-1.774 4.13-4.032 4.13H11.126c.77-1.013 1.245-2.247 1.245-3.569V2.501h55.816c2.291 0 4.219 2.06 4.219 4.505v36.363z"/>
    <path fill="#383838" d="M63.67 9.947H46.178c-.694 0-1.245.562-1.245 1.245v14.992c0 .694.562 1.245 1.245 1.245H63.67c.694 0 1.245-.562 1.245-1.245V11.203c0-.694-.562-1.256-1.245-1.256zM62.415 24.95H47.422V12.448h14.993V24.95z"/>
</svg>
