<svg xmlns="http://www.w3.org/2000/svg" width="74" height="60" fill="none" viewBox="0 0 74 60">
    <path fill="#383838" d="M27.03 22.118H9.833c-.683 0-1.225.553-1.225 1.225 0 .683.553 1.225 1.225 1.225H27.04a1.224 1.224 0 1 0-.01-2.45zM27.03 31.951H9.833a1.224 1.224 0 1 0 0 2.45H27.04c.683 0 1.225-.552 1.225-1.224 0-.683-.553-1.226-1.236-1.226zM27.03 41.775H9.833a1.224 1.224 0 1 0 0 2.45H27.04c.683 0 1.225-.553 1.225-1.225s-.553-1.225-1.236-1.225z"/>
    <path fill="#383838" d="M63.73 6.592V1.225C63.73.542 63.177 0 62.505 0H45.46c-.683 0-1.225.553-1.225 1.225v5.4c-2.906.51-6.636 1.463-8.555 3.165C32.873 7.07 25.446 5.8 18.431 5.8 9.551 5.8 0 7.818 0 12.253v46.512c0 .369.163.716.445.943.281.239.65.325 1.008.26 5.063-.932 10.777-1.409 16.979-1.409 6.201 0 11.915.477 16.978 1.41.076.01.152.021.217.021.033 0 .054-.01.087-.01.022 0 .043.01.065.01 7.372-.9 11.85-1.42 18.28-1.42 6.527 0 13.498.542 18.214 1.41.076.01.152.021.217.021a1.226 1.226 0 0 0 1.225-1.225V12.25c.011-3.317-5.93-4.933-9.985-5.659zm-17.033-4.13h14.582v33.794l-5.594-4.89c-.89-.78-2.32-.78-3.22-.01l-5.768 4.943V2.461zM2.46 57.311v-45.06c0-1.4 5.486-4.001 15.97-4.001 10.485 0 15.97 2.602 15.97 4v45.06c-4.835-.791-10.202-1.193-15.97-1.193-5.768 0-11.134.402-15.97 1.193zm68.804 0c-4.792-.76-11.08-1.204-17.206-1.204-6.159 0-10.539.455-17.207 1.268V12.252c0-.586 1.93-2.104 7.373-3.123v27.149c0 .683.27 1.322.77 1.788a2.478 2.478 0 0 0 1.702.673c.574 0 1.149-.206 1.594-.597l5.768-4.944 5.594 4.89a2.47 2.47 0 0 0 1.616.607 2.466 2.466 0 0 0 2.46-2.46V9.106c5.682 1.074 7.536 2.657 7.536 3.155v45.05z"/>
</svg>
