<svg xmlns="http://www.w3.org/2000/svg" width="68" height="68" fill="none" viewBox="0 0 68 68">
    <path fill="#383838" d="M58.22 41.674c-.629 0-1.137.51-1.137 1.138v23.581a1.137 1.137 0 1 0 2.275 0V42.812c0-.629-.51-1.138-1.138-1.138zM58.22 14.56c2.994 0 4.98-3.812 4.98-6.327 0-2.784-2.236-5.06-4.98-5.06s-4.98 2.266-4.98 5.06c0 2.525 1.986 6.327 4.98 6.327zm0-9.101c1.497 0 2.715 1.247 2.715 2.784 0 1.677-1.398 4.052-2.715 4.052-1.307 0-2.704-2.375-2.704-4.052 0-1.537 1.217-2.784 2.704-2.784z"/>
    <path fill="#383838" d="M66.204 16.147c-.12-.1-.27-.18-.43-.23-.229-.07-.548-.09-1.965-.15l-.759-.04c-1.187-.08-2.185.56-2.734 1.667-.41.809-1.347 1.088-2.086 1.088-.738 0-1.676-.29-2.086-1.088-.548-1.098-1.616-1.736-2.734-1.666-.589.04-14.001 2.255-16.586 2.694-1.277.22-2.135 1.277-2.085 2.595.05 1.307.988 2.315 2.275 2.435l13.592 1.267v13.852l1.517 27.882c.03.609.539 1.078 1.137 1.078h.06a1.124 1.124 0 0 0 1.068-1.198l-1.517-27.822V23.68c0-.588-.449-1.078-1.028-1.137l-14.62-1.368c-.06-.01-.21-.02-.22-.25-.01-.229.13-.249.19-.259 4.092-.688 15.718-2.604 16.357-2.664.22-.04.449.2.559.42.728 1.446 2.305 2.334 4.121 2.334 1.806 0 3.383-.898 4.112-2.335.11-.21.3-.469.569-.42l.808.04c.36.02.778.03 1.068.04.339.979 1.137 4.83.648 19.072-.469-.03-.978-.01-1.397.349-.23.2-.439.629-.459.938l-1.517 27.882c-.04.63.45 1.168 1.078 1.198.699.08 1.168-.45 1.198-1.068l1.477-26.974c.469.03.998.02 1.417-.34.24-.21.439-.628.449-.948.728-20.178-.928-21.585-1.477-22.044z"/>
    <path fill="#383838" d="M44.299 52.272H2.275V6.566h44.3a1.137 1.137 0 1 0 0-2.275h-1.139V1.138a1.137 1.137 0 1 0-2.275 0V4.29H27.244V1.138a1.137 1.137 0 1 0-2.275 0V4.29H1.138C.509 4.291 0 4.801 0 5.43V53.41c0 .629.509 1.138 1.138 1.138h43.16a1.137 1.137 0 1 0 0-2.276zM41.874 65.725h-5.489V58.08a1.137 1.137 0 1 0-2.275 0v7.645h-8.004a1.137 1.137 0 1 0 0 2.275h15.768a1.137 1.137 0 1 0 0-2.275z"/>
    <path fill="#383838" d="M22.693 12.295c0-.629-.509-1.138-1.137-1.138H10.179c-.629 0-1.138.509-1.138 1.138V23.67c0 .629.51 1.138 1.138 1.138h11.377c.628 0 1.137-.509 1.137-1.138V12.295zm-2.275 10.229h-9.101v-9.102h9.101v9.102zM43.241 14.57c0-.629-.509-1.138-1.138-1.138H28.461a1.137 1.137 0 1 0 0 2.276h13.652c.619 0 1.128-.51 1.128-1.138zM30.577 17.983h-2.116a1.137 1.137 0 1 0 0 2.275h2.116a1.137 1.137 0 1 0 0-2.275zM21.556 31.625H10.179c-.629 0-1.138.509-1.138 1.138v11.376c0 .629.51 1.138 1.138 1.138h11.377c.628 0 1.137-.51 1.137-1.138V32.762c0-.628-.509-1.137-1.137-1.137zm-1.138 11.377h-9.101V33.9h9.101v9.102zM43.241 35.038c0-.629-.509-1.138-1.138-1.138H28.461a1.137 1.137 0 1 0 0 2.276h13.652c.619 0 1.128-.51 1.128-1.138zM28.461 38.45a1.137 1.137 0 1 0 0 2.276h6.826a1.137 1.137 0 1 0 0-2.275h-6.826z"/>
</svg>
