<svg xmlns="http://www.w3.org/2000/svg" width="69" height="68" fill="none" viewBox="0 0 69 68">
    <path fill="#383838" d="M34.005 0C15.252 0 0 15.252 0 34.005 0 52.748 15.252 68 34.005 68 52.748 68 68.01 52.748 68.01 34.005 68.01 15.252 52.758 0 34.005 0zm0 65.72C16.522 65.72 2.29 51.488 2.29 34.005 2.29 16.512 16.522 2.29 34.005 2.29S65.72 16.522 65.72 34.015c0 17.473-14.222 31.705-31.715 31.705z"/>
    <path fill="#383838" d="M45.957 31.275L30.344 19.093c-.61-.48-1.34-.73-2.1-.73-1.9 0-3.45 1.54-3.45 3.44v24.364c0 1.9 1.55 3.44 3.45 3.44.76 0 1.49-.25 2.11-.73l15.613-12.182c.84-.66 1.32-1.64 1.32-2.71a3.44 3.44 0 0 0-1.33-2.71zm-1.41 3.61L28.944 47.067c-.21.16-.45.25-.7.25-.57 0-1.16-.43-1.16-1.16V21.793c0-.72.59-1.16 1.16-1.16.25 0 .49.08.7.25l15.613 12.182c.28.22.44.55.44.91-.01.36-.17.7-.45.91z"/>
</svg>
