<svg xmlns="http://www.w3.org/2000/svg" width="71" height="68" fill="none" viewBox="0 0 71 68">
    <path fill="#383838" d="M33.208 56.06c.228.229.528.343.828.343h.041c.384 0 .715-.197.933-.487l12.954-12.85a1.175 1.175 0 0 0 .01-1.657 1.166 1.166 0 0 0-1.657-.01L35.258 52.364V1.17a1.169 1.169 0 1 0-2.34 0v51.287L21.766 41.398a1.166 1.166 0 0 0-1.657.01 1.166 1.166 0 0 0 .01 1.658L33.208 56.06z"/>
    <path fill="#383838" d="M69.243 49.227c-.653 0-1.17.528-1.17 1.17V65.65H2.35V50.397c0-.652-.529-1.17-1.17-1.17-.653 0-1.181.528-1.181 1.17V66.83C0 67.482.528 68 1.17 68h68.062c.653 0 1.17-.528 1.17-1.17V50.397a1.16 1.16 0 0 0-1.16-1.17z"/>
</svg>
